# xmcd CD database file
#
# Track frame offsets:
#	150
#	13128
#	27131
#	37271
#	70709
#	93590
#	111193
#	133505
#
# Disc length: 2101 seconds
#
# Revision: 0
# Processed by: cddbd v1.5.2PL0 Copyright (c) Steve Scherf et al.
# Submitted via: CDex 1.70beta2
#
DISCID=68083308
DTITLE=Doppelleben - Doppelleben
DYEAR=2012
DGENRE=Jazz
TTITLE0=Szene I
TTITLE1=Szene II
TTITLE2=Letzte Träne
TTITLE3=Wie ein Lied
TTITLE4=Reich
TTITLE5=Mein sein
TTITLE6=Gedanken
TTITLE7=Abschied
EXTD=YEAR: 2012
EXTT0=
EXTT1=
EXTT2=
EXTT3=
EXTT4=
EXTT5=
EXTT6=
EXTT7=
PLAYORDER=
